<?xml version="1.0" standalone="no"?>
<!DOCTYPE svg PUBLIC "-//W3C//DTD SVG 20010904//EN"
 "http://www.w3.org/TR/2001/REC-SVG-20010904/DTD/svg10.dtd">
<svg version="1.0" xmlns="http://www.w3.org/2000/svg"
 width="878.000000pt" height="772.000000pt" viewBox="0 0 878.000000 772.000000"
 preserveAspectRatio="xMidYMid meet">

<g transform="translate(0.000000,772.000000) scale(0.100000,-0.100000)"
fill="#000000" stroke="none">
<path d="M3582 7280 c-39 -27 -75 -57 -80 -66 -7 -13 -17 -14 -70 -4 -63 11
-102 7 -139 -16 -18 -11 -29 -10 -77 6 -67 24 -194 27 -234 6 -15 -8 -51 -39
-80 -69 -52 -53 -54 -54 -102 -49 -61 6 -89 -1 -119 -29 -20 -19 -36 -22 -105
-24 -61 -1 -91 -6 -123 -23 -52 -27 -98 -82 -113 -138 -10 -34 -18 -44 -39
-49 -40 -9 -97 -60 -117 -105 -15 -34 -22 -40 -48 -40 -109 0 -188 -80 -204
-207 l-7 -55 -75 -27 c-173 -61 -220 -121 -225 -285 -1 -65 -3 -70 -26 -76
-90 -25 -169 -115 -169 -194 0 -14 -6 -29 -14 -33 -51 -29 -80 -163 -53 -242
10 -28 12 -51 7 -65 -5 -11 -11 -34 -15 -49 -4 -20 -16 -33 -41 -43 -67 -28
-304 -176 -329 -206 -17 -20 -25 -42 -25 -69 0 -21 -6 -103 -14 -181 -55 -544
-67 -1003 -32 -1233 20 -134 76 -403 100 -484 l16 -53 -79 -74 c-43 -40 -127
-137 -186 -216 -60 -79 -155 -188 -211 -243 -110 -108 -210 -248 -239 -335
-26 -79 -18 -228 17 -302 34 -72 108 -152 173 -186 45 -25 60 -27 160 -27 97
0 116 3 160 25 109 53 192 174 220 322 8 43 28 107 44 142 35 77 136 227 183
273 l34 33 94 -143 c80 -121 118 -166 255 -303 295 -295 589 -489 915 -603
162 -56 341 -111 365 -111 8 0 43 -8 76 -17 l62 -17 -7 -156 c-4 -85 -9 -175
-12 -200 l-6 -45 -107 -1 c-117 -1 -157 -11 -248 -65 -169 -102 -248 -267
-187 -394 47 -101 153 -167 337 -210 237 -56 394 -78 557 -79 205 -1 219 5
272 125 20 46 44 116 53 154 21 89 45 331 45 458 l0 98 33 14 c44 19 102 62
181 136 l67 62 -23 24 c-32 34 -37 133 -9 187 11 21 18 43 15 48 -16 25 -207
167 -233 173 -65 14 -97 -24 -141 -171 -12 -40 -12 -40 -64 -42 -75 -2 -326
17 -437 33 -129 19 -612 178 -735 241 -255 133 -434 264 -645 474 -100 99
-171 181 -227 260 -78 110 -251 409 -267 460 -4 14 -25 69 -46 122 -62 155
-111 357 -156 633 -24 147 -24 552 -1 825 9 107 22 275 29 373 l12 177 89 54
c48 30 88 51 88 47 0 -3 -18 -40 -39 -82 l-39 -75 32 -30 c24 -23 49 -34 111
-47 279 -57 433 -91 525 -117 161 -45 343 -76 590 -99 124 -12 320 -30 435
-41 116 -11 275 -24 355 -30 80 -6 208 -15 285 -21 388 -29 1043 -16 1540 31
475 45 633 62 715 79 52 10 129 24 170 31 212 33 434 76 595 116 148 37 184
49 203 70 36 40 29 67 -31 118 -60 51 -103 129 -93 169 l6 24 102 -51 c63 -31
121 -68 149 -96 l46 -45 6 -125 c4 -69 12 -152 18 -185 7 -37 9 -99 5 -161 -4
-56 -2 -164 4 -240 6 -90 7 -239 1 -424 -7 -260 -11 -304 -45 -500 -41 -243
-82 -392 -134 -495 -19 -38 -50 -106 -69 -150 -39 -92 -150 -281 -218 -375
-61 -83 -197 -223 -300 -309 -197 -165 -286 -232 -360 -271 -44 -23 -121 -64
-171 -91 -50 -27 -111 -56 -135 -65 -292 -107 -495 -166 -626 -183 -43 -5
-158 -13 -255 -17 l-177 -6 -11 43 c-32 129 -66 168 -134 155 -36 -7 -211
-113 -241 -146 -18 -20 -18 -21 3 -36 48 -33 51 -176 4 -222 l-24 -25 74 -74
c40 -41 92 -88 116 -104 l42 -30 0 -97 c0 -126 24 -368 45 -457 9 -38 33 -108
53 -154 53 -120 67 -126 272 -125 163 1 320 23 557 79 184 43 290 109 337 210
61 127 -18 292 -187 394 -91 54 -131 64 -249 65 l-106 1 -6 50 c-3 28 -9 114
-12 192 l-7 141 44 12 c24 6 85 24 134 40 50 15 139 43 199 60 218 65 373 138
570 269 329 218 606 470 737 669 71 109 75 113 104 108 148 -25 250 -29 441
-18 119 7 215 8 239 3 35 -8 135 -20 174 -21 8 0 1 -14 -17 -35 -40 -45 -48
-91 -32 -178 17 -85 7 -108 -60 -147 -47 -27 -62 -59 -40 -86 43 -51 189 45
206 135 4 18 1 65 -6 103 -9 46 -10 78 -4 96 13 39 75 67 142 64 68 -3 103 16
148 78 20 28 42 50 50 50 7 0 38 30 68 66 86 104 122 242 98 371 -6 32 -8 76
-4 97 7 37 10 40 74 66 104 42 165 98 219 200 20 38 23 60 24 145 0 88 -3 107
-27 158 -36 77 -117 156 -203 198 -67 33 -74 34 -185 34 -109 0 -118 -2 -180
-32 -205 -100 -281 -320 -178 -515 36 -68 32 -92 -20 -108 -20 -7 -69 -30
-108 -51 -93 -50 -191 -76 -332 -90 -110 -11 -237 -5 -247 10 -2 5 0 23 6 42
8 28 41 212 90 500 5 31 9 227 8 435 0 209 0 435 1 504 0 69 -6 181 -15 250
-8 68 -15 153 -15 188 0 113 -15 148 -95 229 -61 61 -88 80 -189 128 -107 51
-121 55 -149 45 -28 -9 -33 -8 -57 18 -14 16 -32 31 -39 33 -10 4 -10 14 -1
52 15 59 7 107 -25 141 -21 23 -23 31 -14 48 53 98 6 213 -98 241 -42 11 -43
12 -43 53 0 49 -30 98 -80 132 -32 21 -35 28 -36 73 -1 40 -8 60 -39 105 -46
66 -75 91 -125 104 -27 7 -44 20 -58 45 -22 35 -95 95 -119 95 -8 0 -13 12
-13 34 0 51 -15 81 -67 138 -63 67 -109 88 -198 88 -47 0 -78 5 -92 15 -32 22
-140 55 -181 55 -29 0 -48 12 -116 73 -127 114 -144 126 -203 143 -45 13 -63
14 -100 4 -43 -10 -47 -9 -72 14 -57 55 -139 70 -204 37 -25 -13 -49 -17 -80
-14 -26 3 -57 -1 -80 -11 l-38 -15 -61 65 c-97 103 -169 127 -253 84 -39 -20
-40 -20 -80 -1 -75 35 -109 36 -169 6 l-53 -27 -72 26 c-43 16 -93 26 -125 26
-47 0 -60 -5 -124 -50z m192 -110 c32 -11 73 -33 92 -50 55 -48 79 -41 143 40
l20 25 60 -32 c33 -18 67 -33 77 -33 9 0 37 12 61 26 60 35 81 27 144 -49 93
-114 122 -126 201 -86 36 18 47 20 73 10 45 -16 56 -14 97 14 50 34 66 32 84
-12 37 -89 86 -104 159 -52 57 41 76 36 161 -41 36 -33 70 -60 75 -60 5 0 9
-15 9 -34 0 -49 8 -65 42 -82 28 -14 34 -14 74 1 24 9 60 15 81 13 35 -3 38
-5 41 -38 7 -73 53 -87 144 -45 74 34 100 32 149 -12 37 -33 40 -40 35 -72
-20 -122 -20 -116 10 -140 24 -19 36 -21 72 -16 55 8 72 -5 72 -56 0 -59 26
-79 99 -79 57 0 61 -2 87 -35 25 -33 26 -39 15 -74 -18 -63 -14 -97 15 -120
15 -12 36 -21 48 -21 12 0 31 -6 41 -14 17 -13 17 -15 -8 -48 -32 -41 -36 -97
-9 -120 10 -9 47 -18 93 -21 86 -7 109 -14 109 -31 0 -6 -16 -36 -35 -66 -19
-30 -35 -66 -35 -80 0 -31 31 -67 65 -76 32 -8 31 -20 -5 -68 -51 -67 -34
-136 37 -152 16 -3 33 -7 39 -9 7 -2 9 -31 6 -84 -4 -76 -3 -86 28 -147 17
-36 30 -67 28 -68 -9 -9 -282 -68 -418 -91 -85 -15 -231 -40 -323 -56 -92 -17
-263 -39 -380 -50 -117 -10 -248 -24 -292 -29 -165 -20 -761 -50 -1045 -52
-206 -2 -367 2 -535 15 -132 9 -303 21 -380 27 -77 5 -203 16 -280 24 -77 9
-198 20 -270 26 -315 26 -484 51 -690 102 -66 16 -207 46 -314 66 l-195 37 -1
65 c0 36 -5 80 -9 98 -7 28 -6 32 11 32 11 0 30 10 42 22 20 18 23 28 18 70
-5 37 -3 48 8 48 20 0 45 40 45 71 0 14 -13 43 -30 64 -22 27 -30 49 -30 76 0
34 4 40 33 52 52 22 61 39 54 107 -7 58 -6 60 23 75 16 8 52 15 80 15 37 0 55
5 71 21 20 20 21 28 14 128 -4 67 -3 116 4 133 14 37 56 61 170 99 51 17 101
40 110 50 11 13 18 46 21 101 4 72 8 83 30 100 20 14 35 17 73 12 l47 -7 0
-56 c0 -62 17 -97 56 -111 55 -21 106 37 84 94 -26 69 26 146 99 146 39 0 71
-19 128 -77 37 -38 67 -42 100 -11 37 35 30 71 -24 129 -51 55 -100 85 -160
97 -38 8 -38 9 -37 55 0 55 29 93 76 99 23 4 39 -3 70 -29 22 -18 51 -33 64
-33 30 0 71 38 80 75 l6 26 12 -23 c6 -12 23 -29 38 -37 40 -23 72 -3 107 67
16 32 50 77 76 101 46 43 48 43 102 38 31 -3 72 -16 98 -31 55 -33 95 -33 133
-1 34 29 58 31 109 10 55 -23 100 -19 128 11 14 15 25 31 25 35 0 10 98 89
109 89 4 0 34 -9 65 -20z m4406 -3366 c0 -9 -7 -14 -17 -12 -25 5 -28 28 -4
28 12 0 21 -6 21 -16z m-170 -27 c0 -7 -11 -25 -24 -42 l-25 -30 -23 23 -22
22 24 18 c45 32 70 35 70 9z m296 -12 c18 -14 17 -14 -13 -15 -23 0 -33 5 -33
15 0 19 21 19 46 0z m-166 -70 c0 -24 -30 -85 -43 -85 -6 0 -23 9 -36 19 l-24
18 23 41 c21 38 24 39 51 30 16 -5 29 -16 29 -23z m-225 -110 c-9 -60 -22 -66
-56 -25 -24 27 -29 41 -25 64 11 53 25 60 58 29 26 -25 29 -33 23 -68z m379
77 c7 -12 -15 -96 -28 -104 -13 -9 -58 1 -67 14 -3 5 1 29 10 54 14 40 19 44
48 44 17 0 34 -4 37 -8z m132 -59 c7 -39 -4 -53 -45 -53 -16 0 -21 4 -18 14 3
8 11 33 17 56 9 34 14 39 25 30 8 -7 17 -28 21 -47z m-379 -64 c27 -17 32 -25
27 -43 -23 -73 -34 -80 -74 -48 -20 16 -21 21 -10 65 7 26 15 47 18 47 2 0 20
-9 39 -21z m172 -68 c11 -7 11 -15 1 -45 -10 -32 -15 -36 -46 -36 -38 0 -38 0
-23 53 8 28 15 37 32 37 12 0 28 -4 36 -9z m211 -6 c0 -3 -6 -21 -14 -39 -12
-29 -19 -34 -61 -40 -27 -3 -50 -4 -52 -2 -2 2 2 20 11 39 11 27 22 37 43 40
46 7 73 7 73 2z m-566 -31 c9 -8 16 -23 16 -32 -1 -14 -5 -12 -20 7 -30 35
-26 56 4 25z m154 -89 c2 -1 0 -14 -4 -29 -4 -16 -13 -26 -24 -26 -21 0 -31
20 -23 49 4 17 10 20 27 15 11 -4 22 -8 24 -9z m132 -48 c0 -20 -39 -52 -49
-41 -14 15 6 54 29 54 11 0 20 -6 20 -13z m130 -11 c0 -2 -7 -7 -16 -10 -8 -3
-12 -2 -9 4 6 10 25 14 25 6z m-304 -104 c27 -11 71 -23 97 -26 38 -6 47 -11
43 -23 -3 -8 -6 -21 -6 -29 0 -8 -8 -14 -17 -14 -9 0 -31 -5 -48 -11 -28 -10
-42 -8 -106 16 -103 40 -106 43 -85 100 l18 45 27 -19 c15 -11 50 -29 77 -39z
m-305 -224 c-30 -93 -55 -189 -66 -261 -5 -32 -9 -36 -28 -32 -57 14 -161 19
-247 13 -109 -8 -335 -10 -365 -4 -11 3 -31 5 -45 5 -53 2 -54 12 -7 117 85
191 89 196 117 189 53 -14 325 -14 408 0 84 14 187 45 232 70 14 7 26 10 28 5
2 -5 -10 -51 -27 -102z m-6506 -91 l70 -134 -67 -71 c-138 -146 -232 -308
-274 -470 -47 -182 -104 -242 -230 -242 -73 0 -123 27 -163 86 -59 90 -57 194
6 300 51 84 132 180 196 231 26 21 101 108 165 193 118 156 206 255 220 246 4
-2 38 -65 77 -139z m6617 -131 c29 -14 65 -27 79 -31 15 -4 37 -23 52 -46 l26
-39 -20 -35 c-25 -42 -39 -43 -125 -9 -93 38 -107 67 -78 167 7 21 3 22 66 -7z
m-4382 -1380 c69 -8 139 -12 156 -9 l32 5 7 -109 c9 -129 1 -443 -15 -568 -12
-90 -51 -227 -73 -254 -38 -45 -649 49 -777 120 -24 13 -52 38 -63 56 -18 31
-18 33 1 77 23 50 75 94 161 134 52 24 59 25 182 18 85 -4 136 -3 149 4 39 21
47 58 59 275 13 241 17 265 40 265 9 0 72 -6 141 -14z m1464 -18 c3 -13 11
-117 17 -233 12 -217 19 -254 59 -275 13 -7 64 -8 149 -4 123 7 130 6 182 -18
86 -40 138 -84 161 -134 19 -44 19 -46 1 -77 -11 -18 -39 -43 -63 -56 -128
-71 -739 -165 -777 -120 -22 27 -61 164 -73 254 -15 118 -23 488 -13 590 l8
80 90 6 c50 3 127 6 171 7 77 2 82 1 88 -20z"/>
<path d="M4625 6426 c-65 -30 -145 -115 -145 -154 0 -34 36 -72 69 -72 14 0
42 20 74 54 88 91 129 84 167 -29 22 -67 40 -85 83 -85 74 0 75 122 1 233 -49
75 -155 97 -249 53z"/>
<path d="M3269 5892 c-83 -43 -119 -110 -119 -223 0 -63 18 -89 62 -89 36 0
57 29 68 91 12 73 17 84 46 98 66 30 109 3 139 -86 20 -63 57 -97 95 -88 54
13 64 67 29 160 -55 148 -190 205 -320 137z"/>
<path d="M2953 3505 c-117 -58 -169 -140 -161 -250 10 -118 77 -199 198 -236
79 -24 115 -22 203 11 68 25 134 82 158 134 25 54 24 79 -1 39 -45 -75 -127
-88 -186 -29 -26 26 -34 42 -34 70 0 80 58 133 132 123 47 -6 74 -29 100 -82
l18 -40 -5 45 c-8 60 -38 120 -84 167 -53 56 -103 77 -191 81 -70 3 -80 1
-147 -33z"/>
<path d="M4883 3526 c-95 -30 -177 -110 -198 -194 -16 -60 -4 -150 25 -197 25
-41 84 -89 137 -112 88 -38 254 -10 335 57 41 34 78 102 78 145 l0 28 -23 -34
c-12 -18 -38 -39 -58 -47 -31 -12 -41 -11 -72 1 -93 39 -94 164 0 203 62 27
121 -6 149 -83 l13 -38 1 34 c1 79 -54 172 -122 207 -83 43 -185 55 -265 30z"/>
<path d="M4952 2523 c-214 -167 -407 -242 -727 -283 -127 -16 -158 -17 -340
-5 -271 18 -415 50 -586 132 -68 33 -147 78 -176 101 -55 44 -91 52 -117 26
-29 -28 -18 -56 42 -112 85 -80 296 -181 462 -221 185 -44 226 -49 440 -57
157 -5 217 -3 310 11 300 43 467 101 654 223 173 113 217 169 170 216 -28 28
-67 19 -132 -31z"/>
</g>
</svg>
